<?xml version="1.0" encoding="UTF-8"?>
<svg id="Layer_1" xmlns="http://www.w3.org/2000/svg" version="1.1" viewBox="496 496 870 372">
  <!-- Generator: Adobe Illustrator 29.6.1, SVG Export Plug-In . SVG Version: 2.1.1 Build 9)  -->
  <defs>
    <style>
      .st0 {
        fill: #fff;
      }

      .st1 {
        fill: #63666a;
      }
    </style>
  </defs>
  <rect class="st1" width="1920" height="1080"/>
  <g>
    <polygon class="st0" points="599.55 525.68 599.55 598.48 576.94 598.48 576.94 525.68 550.78 525.68 551.21 506.2 625.15 506.2 625.57 525.68 599.55 525.68"/>
    <path class="st0" d="M712.66,524.25h-13.93v24.46h13.65c9.67,0,13.22-2.84,13.22-12.51,0-8.96-3.27-11.95-12.94-11.95M733,560.65l22.47,37.82h-26.31l-16.63-33.41h-13.8v33.41h-22.18v-92.27h36.11c24.17,0,36.26,9.39,36.26,29,.01,12.94-5.68,22.18-15.92,25.45"/>
    <path class="st0" d="M837.64,534.92l-8.82,28.01h24.03l-8.53-27.87-2.99-11.23h-.43l-3.26,11.09ZM858.4,580.85h-35.12l-5.54,17.63h-23.74l34.12-92.28h26.16l34.69,92.28h-25.16l-5.41-17.63Z"/>
    <polygon class="st0" points="988.64 550.13 1017.07 598.48 991.62 598.48 978.4 574.17 973.28 563.93 972.85 563.93 967.6 574.3 954.8 598.48 928.64 598.48 956.65 550.7 929.34 506.2 956.22 506.2 967.74 527.1 973 537.2 973.42 537.2 978.68 527.1 990.34 506.2 1016.08 506.2 988.64 550.13"/>
    <rect class="st0" x="1066.55" y="506.2" width="22.89" height="92.28"/>
    <polygon class="st0" points="1337.98 598.48 1303.01 548.71 1296.61 539.19 1296.32 539.33 1296.47 550.84 1296.47 598.48 1276.7 598.48 1276.7 506.2 1295.33 506.2 1329.31 553.69 1335.85 563.07 1336.14 562.93 1335.85 551.55 1335.85 506.2 1355.76 506.2 1355.76 598.48 1337.98 598.48"/>
    <path class="st0" d="M1183.54,523.01c-14.08,0-19.02,5.68-19.02,29.15s5.07,29.39,19.14,29.39,18.9-6.05,18.9-29.39c-.01-23.46-4.82-29.15-19.02-29.15M1183.54,600.21c-28.53,0-40.88-15.07-40.88-48.04s11.98-47.8,40.88-47.8,40.76,14.82,40.76,47.8c-.01,33.59-11.74,48.04-40.76,48.04"/>
  </g>
</svg>